<?xml version="1.0" encoding="utf-8" standalone="no"?>
<!DOCTYPE svg PUBLIC "-//W3C//DTD SVG 1.1//EN"
  "http://www.w3.org/Graphics/SVG/1.1/DTD/svg11.dtd">
<svg xmlns:xlink="http://www.w3.org/1999/xlink" width="433.63pt" height="322.677pt" viewBox="0 0 433.63 322.677" xmlns="http://www.w3.org/2000/svg" version="1.1">
 <metadata>
  <rdf:RDF xmlns:dc="http://purl.org/dc/elements/1.1/" xmlns:cc="http://creativecommons.org/ns#" xmlns:rdf="http://www.w3.org/1999/02/22-rdf-syntax-ns#">
   <cc:Work>
    <dc:type rdf:resource="http://purl.org/dc/dcmitype/StillImage"/>
    <dc:date>2025-05-10T13:49:30.431409</dc:date>
    <dc:format>image/svg+xml</dc:format>
    <dc:creator>
     <cc:Agent>
      <dc:title>Matplotlib v3.6.0, https://matplotlib.org/</dc:title>
     </cc:Agent>
    </dc:creator>
   </cc:Work>
  </rdf:RDF>
 </metadata>
 <defs>
  <style type="text/css">*{stroke-linejoin: round; stroke-linecap: butt}</style>
 </defs>
 <g id="figure_1">
  <g id="patch_1">
   <path d="M 0 322.677 
L 433.63 322.677 
L 433.63 0 
L 0 0 
z
" style="fill: #ffffff"/>
  </g>
  <g id="axes_1">
   <g id="patch_2">
    <path d="M 69.31 273.312 
L 426.43 273.312 
L 426.43 7.2 
L 69.31 7.2 
z
" style="fill: #ffffff"/>
   </g>
   <g id="PolyCollection_1">
    <defs>
     <path id="mfab8ce7228" d="M 81.214 -137.481349 
L 81.214 -126.219055 
L 105.022 -121.53274 
L 128.83 -118.680947 
L 152.638 -150.766852 
L 176.446 -163.613272 
L 200.254 -157.317961 
L 224.062 -169.283086 
L 247.87 -182.544954 
L 271.678 -169.283086 
L 295.486 -157.317961 
L 319.294 -163.613272 
L 343.102 -150.766852 
L 366.91 -118.680947 
L 390.718 -121.53274 
L 414.526 -126.219055 
L 414.526 -137.481349 
L 414.526 -137.481349 
L 390.718 -135.711206 
L 366.91 -133.227456 
L 343.102 -163.981568 
L 319.294 -178.421198 
L 295.486 -171.964496 
L 271.678 -182.394829 
L 247.87 -201.729398 
L 224.062 -182.394829 
L 200.254 -171.964496 
L 176.446 -178.421198 
L 152.638 -163.981568 
L 128.83 -133.227456 
L 105.022 -135.711206 
L 81.214 -137.481349 
z
" style="stroke: #ff7f50; stroke-opacity: 0.25"/>
    </defs>
    <g clip-path="url(#pd8d2c414f3)">
     <use xlink:href="#mfab8ce7228" x="0" y="322.677" style="fill: #ff7f50; fill-opacity: 0.25; stroke: #ff7f50; stroke-opacity: 0.25"/>
    </g>
   </g>
   <g id="matplotlib.axis_1">
    <g id="xtick_1">
     <g id="line2d_1">
      <defs>
       <path id="m9ec1c6644d" d="M 0 0 
L 0 3.5 
" style="stroke: #000000; stroke-width: 0.8"/>
      </defs>
      <g>
       <use xlink:href="#m9ec1c6644d" x="77.35776" y="273.312" style="stroke: #000000; stroke-width: 0.8"/>
      </g>
     </g>
     <g id="text_1">
      <!-- −3 -->
      <g transform="translate(65.56401 292.4695) scale(0.16 -0.16)">
       <defs>
        <path id="DejaVuSans-2212" d="M 678 2272 
L 4684 2272 
L 4684 1741 
L 678 1741 
L 678 2272 
z
" transform="scale(0.015625)"/>
        <path id="DejaVuSans-33" d="M 2597 2516 
Q 3050 2419 3304 2112 
Q 3559 1806 3559 1356 
Q 3559 666 3084 287 
Q 2609 -91 1734 -91 
Q 1441 -91 1130 -33 
Q 819 25 488 141 
L 488 750 
Q 750 597 1062 519 
Q 1375 441 1716 441 
Q 2309 441 2620 675 
Q 2931 909 2931 1356 
Q 2931 1769 2642 2001 
Q 2353 2234 1838 2234 
L 1294 2234 
L 1294 2753 
L 1863 2753 
Q 2328 2753 2575 2939 
Q 2822 3125 2822 3475 
Q 2822 3834 2567 4026 
Q 2313 4219 1838 4219 
Q 1578 4219 1281 4162 
Q 984 4106 628 3988 
L 628 4550 
Q 988 4650 1302 4700 
Q 1616 4750 1894 4750 
Q 2613 4750 3031 4423 
Q 3450 4097 3450 3541 
Q 3450 3153 3228 2886 
Q 3006 2619 2597 2516 
z
" transform="scale(0.015625)"/>
       </defs>
       <use xlink:href="#DejaVuSans-2212"/>
       <use xlink:href="#DejaVuSans-33" x="83.789062"/>
      </g>
     </g>
    </g>
    <g id="xtick_2">
     <g id="line2d_2">
      <g>
       <use xlink:href="#m9ec1c6644d" x="134.195173" y="273.312" style="stroke: #000000; stroke-width: 0.8"/>
      </g>
     </g>
     <g id="text_2">
      <!-- −2 -->
      <g transform="translate(122.401423 292.4695) scale(0.16 -0.16)">
       <defs>
        <path id="DejaVuSans-32" d="M 1228 531 
L 3431 531 
L 3431 0 
L 469 0 
L 469 531 
Q 828 903 1448 1529 
Q 2069 2156 2228 2338 
Q 2531 2678 2651 2914 
Q 2772 3150 2772 3378 
Q 2772 3750 2511 3984 
Q 2250 4219 1831 4219 
Q 1534 4219 1204 4116 
Q 875 4013 500 3803 
L 500 4441 
Q 881 4594 1212 4672 
Q 1544 4750 1819 4750 
Q 2544 4750 2975 4387 
Q 3406 4025 3406 3419 
Q 3406 3131 3298 2873 
Q 3191 2616 2906 2266 
Q 2828 2175 2409 1742 
Q 1991 1309 1228 531 
z
" transform="scale(0.015625)"/>
       </defs>
       <use xlink:href="#DejaVuSans-2212"/>
       <use xlink:href="#DejaVuSans-32" x="83.789062"/>
      </g>
     </g>
    </g>
    <g id="xtick_3">
     <g id="line2d_3">
      <g>
       <use xlink:href="#m9ec1c6644d" x="191.032587" y="273.312" style="stroke: #000000; stroke-width: 0.8"/>
      </g>
     </g>
     <g id="text_3">
      <!-- −1 -->
      <g transform="translate(179.238837 292.4695) scale(0.16 -0.16)">
       <defs>
        <path id="DejaVuSans-31" d="M 794 531 
L 1825 531 
L 1825 4091 
L 703 3866 
L 703 4441 
L 1819 4666 
L 2450 4666 
L 2450 531 
L 3481 531 
L 3481 0 
L 794 0 
L 794 531 
z
" transform="scale(0.015625)"/>
       </defs>
       <use xlink:href="#DejaVuSans-2212"/>
       <use xlink:href="#DejaVuSans-31" x="83.789062"/>
      </g>
     </g>
    </g>
    <g id="xtick_4">
     <g id="line2d_4">
      <g>
       <use xlink:href="#m9ec1c6644d" x="247.87" y="273.312" style="stroke: #000000; stroke-width: 0.8"/>
      </g>
     </g>
     <g id="text_4">
      <!-- 0 -->
      <g transform="translate(242.78 292.4695) scale(0.16 -0.16)">
       <defs>
        <path id="DejaVuSans-30" d="M 2034 4250 
Q 1547 4250 1301 3770 
Q 1056 3291 1056 2328 
Q 1056 1369 1301 889 
Q 1547 409 2034 409 
Q 2525 409 2770 889 
Q 3016 1369 3016 2328 
Q 3016 3291 2770 3770 
Q 2525 4250 2034 4250 
z
M 2034 4750 
Q 2819 4750 3233 4129 
Q 3647 3509 3647 2328 
Q 3647 1150 3233 529 
Q 2819 -91 2034 -91 
Q 1250 -91 836 529 
Q 422 1150 422 2328 
Q 422 3509 836 4129 
Q 1250 4750 2034 4750 
z
" transform="scale(0.015625)"/>
       </defs>
       <use xlink:href="#DejaVuSans-30"/>
      </g>
     </g>
    </g>
    <g id="xtick_5">
     <g id="line2d_5">
      <g>
       <use xlink:href="#m9ec1c6644d" x="304.707413" y="273.312" style="stroke: #000000; stroke-width: 0.8"/>
      </g>
     </g>
     <g id="text_5">
      <!-- 1 -->
      <g transform="translate(299.617413 292.4695) scale(0.16 -0.16)">
       <use xlink:href="#DejaVuSans-31"/>
      </g>
     </g>
    </g>
    <g id="xtick_6">
     <g id="line2d_6">
      <g>
       <use xlink:href="#m9ec1c6644d" x="361.544827" y="273.312" style="stroke: #000000; stroke-width: 0.8"/>
      </g>
     </g>
     <g id="text_6">
      <!-- 2 -->
      <g transform="translate(356.454827 292.4695) scale(0.16 -0.16)">
       <use xlink:href="#DejaVuSans-32"/>
      </g>
     </g>
    </g>
    <g id="xtick_7">
     <g id="line2d_7">
      <g>
       <use xlink:href="#m9ec1c6644d" x="418.38224" y="273.312" style="stroke: #000000; stroke-width: 0.8"/>
      </g>
     </g>
     <g id="text_7">
      <!-- 3 -->
      <g transform="translate(413.29224 292.4695) scale(0.16 -0.16)">
       <use xlink:href="#DejaVuSans-33"/>
      </g>
     </g>
    </g>
    <g id="text_8">
     <!-- Angle ($\theta$) -->
     <g transform="translate(211.39 312.117) scale(0.16 -0.16)">
      <defs>
       <path id="DejaVuSans-41" d="M 2188 4044 
L 1331 1722 
L 3047 1722 
L 2188 4044 
z
M 1831 4666 
L 2547 4666 
L 4325 0 
L 3669 0 
L 3244 1197 
L 1141 1197 
L 716 0 
L 50 0 
L 1831 4666 
z
" transform="scale(0.015625)"/>
       <path id="DejaVuSans-6e" d="M 3513 2113 
L 3513 0 
L 2938 0 
L 2938 2094 
Q 2938 2591 2744 2837 
Q 2550 3084 2163 3084 
Q 1697 3084 1428 2787 
Q 1159 2491 1159 1978 
L 1159 0 
L 581 0 
L 581 3500 
L 1159 3500 
L 1159 2956 
Q 1366 3272 1645 3428 
Q 1925 3584 2291 3584 
Q 2894 3584 3203 3211 
Q 3513 2838 3513 2113 
z
" transform="scale(0.015625)"/>
       <path id="DejaVuSans-67" d="M 2906 1791 
Q 2906 2416 2648 2759 
Q 2391 3103 1925 3103 
Q 1463 3103 1205 2759 
Q 947 2416 947 1791 
Q 947 1169 1205 825 
Q 1463 481 1925 481 
Q 2391 481 2648 825 
Q 2906 1169 2906 1791 
z
M 3481 434 
Q 3481 -459 3084 -895 
Q 2688 -1331 1869 -1331 
Q 1566 -1331 1297 -1286 
Q 1028 -1241 775 -1147 
L 775 -588 
Q 1028 -725 1275 -790 
Q 1522 -856 1778 -856 
Q 2344 -856 2625 -561 
Q 2906 -266 2906 331 
L 2906 616 
Q 2728 306 2450 153 
Q 2172 0 1784 0 
Q 1141 0 747 490 
Q 353 981 353 1791 
Q 353 2603 747 3093 
Q 1141 3584 1784 3584 
Q 2172 3584 2450 3431 
Q 2728 3278 2906 2969 
L 2906 3500 
L 3481 3500 
L 3481 434 
z
" transform="scale(0.015625)"/>
       <path id="DejaVuSans-6c" d="M 603 4863 
L 1178 4863 
L 1178 0 
L 603 0 
L 603 4863 
z
" transform="scale(0.015625)"/>
       <path id="DejaVuSans-65" d="M 3597 1894 
L 3597 1613 
L 953 1613 
Q 991 1019 1311 708 
Q 1631 397 2203 397 
Q 2534 397 2845 478 
Q 3156 559 3463 722 
L 3463 178 
Q 3153 47 2828 -22 
Q 2503 -91 2169 -91 
Q 1331 -91 842 396 
Q 353 884 353 1716 
Q 353 2575 817 3079 
Q 1281 3584 2069 3584 
Q 2775 3584 3186 3129 
Q 3597 2675 3597 1894 
z
M 3022 2063 
Q 3016 2534 2758 2815 
Q 2500 3097 2075 3097 
Q 1594 3097 1305 2825 
Q 1016 2553 972 2059 
L 3022 2063 
z
" transform="scale(0.015625)"/>
       <path id="DejaVuSans-20" transform="scale(0.015625)"/>
       <path id="DejaVuSans-28" d="M 1984 4856 
Q 1566 4138 1362 3434 
Q 1159 2731 1159 2009 
Q 1159 1288 1364 580 
Q 1569 -128 1984 -844 
L 1484 -844 
Q 1016 -109 783 600 
Q 550 1309 550 2009 
Q 550 2706 781 3412 
Q 1013 4119 1484 4856 
L 1984 4856 
z
" transform="scale(0.015625)"/>
       <path id="DejaVuSans-Oblique-3b8" d="M 2913 2219 
L 925 2219 
Q 791 1284 928 888 
Q 1100 400 1566 400 
Q 2034 400 2391 891 
Q 2703 1322 2913 2219 
z
M 3009 2750 
Q 3094 3638 2984 3950 
Q 2813 4444 2353 4444 
Q 1875 4444 1525 3956 
Q 1250 3563 1034 2750 
L 3009 2750 
z
M 2444 4913 
Q 3194 4913 3494 4250 
Q 3794 3591 3566 2422 
Q 3341 1256 2781 594 
Q 2225 -72 1475 -72 
Q 722 -72 425 594 
Q 128 1256 353 2422 
Q 581 3591 1134 4250 
Q 1691 4913 2444 4913 
z
" transform="scale(0.015625)"/>
       <path id="DejaVuSans-29" d="M 513 4856 
L 1013 4856 
Q 1481 4119 1714 3412 
Q 1947 2706 1947 2009 
Q 1947 1309 1714 600 
Q 1481 -109 1013 -844 
L 513 -844 
Q 928 -128 1133 580 
Q 1338 1288 1338 2009 
Q 1338 2731 1133 3434 
Q 928 4138 513 4856 
z
" transform="scale(0.015625)"/>
      </defs>
      <use xlink:href="#DejaVuSans-41" transform="translate(0 0.234375)"/>
      <use xlink:href="#DejaVuSans-6e" transform="translate(68.408203 0.234375)"/>
      <use xlink:href="#DejaVuSans-67" transform="translate(131.787109 0.234375)"/>
      <use xlink:href="#DejaVuSans-6c" transform="translate(195.263672 0.234375)"/>
      <use xlink:href="#DejaVuSans-65" transform="translate(223.046875 0.234375)"/>
      <use xlink:href="#DejaVuSans-20" transform="translate(284.570312 0.234375)"/>
      <use xlink:href="#DejaVuSans-28" transform="translate(316.357422 0.234375)"/>
      <use xlink:href="#DejaVuSans-Oblique-3b8" transform="translate(355.371094 0.234375)"/>
      <use xlink:href="#DejaVuSans-29" transform="translate(416.552734 0.234375)"/>
     </g>
    </g>
   </g>
   <g id="matplotlib.axis_2">
    <g id="ytick_1">
     <g id="line2d_8">
      <defs>
       <path id="m022277d296" d="M 0 0 
L -3.5 0 
" style="stroke: #000000; stroke-width: 0.8"/>
      </defs>
      <g>
       <use xlink:href="#m022277d296" x="69.31" y="257.184" style="stroke: #000000; stroke-width: 0.8"/>
      </g>
     </g>
     <g id="text_9">
      <!-- 0.05 -->
      <g transform="translate(26.685 263.26275) scale(0.16 -0.16)">
       <defs>
        <path id="DejaVuSans-2e" d="M 684 794 
L 1344 794 
L 1344 0 
L 684 0 
L 684 794 
z
" transform="scale(0.015625)"/>
        <path id="DejaVuSans-35" d="M 691 4666 
L 3169 4666 
L 3169 4134 
L 1269 4134 
L 1269 2991 
Q 1406 3038 1543 3061 
Q 1681 3084 1819 3084 
Q 2600 3084 3056 2656 
Q 3513 2228 3513 1497 
Q 3513 744 3044 326 
Q 2575 -91 1722 -91 
Q 1428 -91 1123 -41 
Q 819 9 494 109 
L 494 744 
Q 775 591 1075 516 
Q 1375 441 1709 441 
Q 2250 441 2565 725 
Q 2881 1009 2881 1497 
Q 2881 1984 2565 2268 
Q 2250 2553 1709 2553 
Q 1456 2553 1204 2497 
Q 953 2441 691 2322 
L 691 4666 
z
" transform="scale(0.015625)"/>
       </defs>
       <use xlink:href="#DejaVuSans-30"/>
       <use xlink:href="#DejaVuSans-2e" x="63.623047"/>
       <use xlink:href="#DejaVuSans-30" x="95.410156"/>
       <use xlink:href="#DejaVuSans-35" x="159.033203"/>
      </g>
     </g>
    </g>
    <g id="ytick_2">
     <g id="line2d_9">
      <g>
       <use xlink:href="#m022277d296" x="69.31" y="216.864" style="stroke: #000000; stroke-width: 0.8"/>
      </g>
     </g>
     <g id="text_10">
      <!-- 0.10 -->
      <g transform="translate(26.685 222.94275) scale(0.16 -0.16)">
       <use xlink:href="#DejaVuSans-30"/>
       <use xlink:href="#DejaVuSans-2e" x="63.623047"/>
       <use xlink:href="#DejaVuSans-31" x="95.410156"/>
       <use xlink:href="#DejaVuSans-30" x="159.033203"/>
      </g>
     </g>
    </g>
    <g id="ytick_3">
     <g id="line2d_10">
      <g>
       <use xlink:href="#m022277d296" x="69.31" y="176.544" style="stroke: #000000; stroke-width: 0.8"/>
      </g>
     </g>
     <g id="text_11">
      <!-- 0.15 -->
      <g transform="translate(26.685 182.62275) scale(0.16 -0.16)">
       <use xlink:href="#DejaVuSans-30"/>
       <use xlink:href="#DejaVuSans-2e" x="63.623047"/>
       <use xlink:href="#DejaVuSans-31" x="95.410156"/>
       <use xlink:href="#DejaVuSans-35" x="159.033203"/>
      </g>
     </g>
    </g>
    <g id="ytick_4">
     <g id="line2d_11">
      <g>
       <use xlink:href="#m022277d296" x="69.31" y="136.224" style="stroke: #000000; stroke-width: 0.8"/>
      </g>
     </g>
     <g id="text_12">
      <!-- 0.20 -->
      <g transform="translate(26.685 142.30275) scale(0.16 -0.16)">
       <use xlink:href="#DejaVuSans-30"/>
       <use xlink:href="#DejaVuSans-2e" x="63.623047"/>
       <use xlink:href="#DejaVuSans-32" x="95.410156"/>
       <use xlink:href="#DejaVuSans-30" x="159.033203"/>
      </g>
     </g>
    </g>
    <g id="ytick_5">
     <g id="line2d_12">
      <g>
       <use xlink:href="#m022277d296" x="69.31" y="95.904" style="stroke: #000000; stroke-width: 0.8"/>
      </g>
     </g>
     <g id="text_13">
      <!-- 0.25 -->
      <g transform="translate(26.685 101.98275) scale(0.16 -0.16)">
       <use xlink:href="#DejaVuSans-30"/>
       <use xlink:href="#DejaVuSans-2e" x="63.623047"/>
       <use xlink:href="#DejaVuSans-32" x="95.410156"/>
       <use xlink:href="#DejaVuSans-35" x="159.033203"/>
      </g>
     </g>
    </g>
    <g id="ytick_6">
     <g id="line2d_13">
      <g>
       <use xlink:href="#m022277d296" x="69.31" y="55.584" style="stroke: #000000; stroke-width: 0.8"/>
      </g>
     </g>
     <g id="text_14">
      <!-- 0.30 -->
      <g transform="translate(26.685 61.66275) scale(0.16 -0.16)">
       <use xlink:href="#DejaVuSans-30"/>
       <use xlink:href="#DejaVuSans-2e" x="63.623047"/>
       <use xlink:href="#DejaVuSans-33" x="95.410156"/>
       <use xlink:href="#DejaVuSans-30" x="159.033203"/>
      </g>
     </g>
    </g>
    <g id="ytick_7">
     <g id="line2d_14">
      <g>
       <use xlink:href="#m022277d296" x="69.31" y="15.264" style="stroke: #000000; stroke-width: 0.8"/>
      </g>
     </g>
     <g id="text_15">
      <!-- 0.35 -->
      <g transform="translate(26.685 21.34275) scale(0.16 -0.16)">
       <use xlink:href="#DejaVuSans-30"/>
       <use xlink:href="#DejaVuSans-2e" x="63.623047"/>
       <use xlink:href="#DejaVuSans-33" x="95.410156"/>
       <use xlink:href="#DejaVuSans-35" x="159.033203"/>
      </g>
     </g>
    </g>
    <g id="text_16">
     <!-- $P(\theta)$ -->
     <g transform="translate(19.3575 156.256) rotate(-90) scale(0.16 -0.16)">
      <defs>
       <path id="DejaVuSans-Oblique-50" d="M 1081 4666 
L 2541 4666 
Q 3178 4666 3512 4369 
Q 3847 4072 3847 3500 
Q 3847 2731 3353 2303 
Q 2859 1875 1966 1875 
L 1172 1875 
L 806 0 
L 172 0 
L 1081 4666 
z
M 1613 4147 
L 1275 2394 
L 2069 2394 
Q 2606 2394 2893 2669 
Q 3181 2944 3181 3456 
Q 3181 3784 2986 3965 
Q 2791 4147 2438 4147 
L 1613 4147 
z
" transform="scale(0.015625)"/>
      </defs>
      <use xlink:href="#DejaVuSans-Oblique-50" transform="translate(0 0.234375)"/>
      <use xlink:href="#DejaVuSans-28" transform="translate(60.302734 0.234375)"/>
      <use xlink:href="#DejaVuSans-Oblique-3b8" transform="translate(99.316406 0.234375)"/>
      <use xlink:href="#DejaVuSans-29" transform="translate(160.498047 0.234375)"/>
     </g>
    </g>
   </g>
   <g id="line2d_15">
    <path d="M 72.654398 -1 
L 73.420991 53.076432 
L 74.493423 114.369748 
L 75.208378 145.46222 
L 75.923333 169.080808 
L 76.638288 186.093217 
L 77.353243 197.683212 
L 78.068198 205.141762 
L 78.783153 209.685162 
L 79.498108 212.327704 
L 80.213063 213.823596 
L 80.928018 214.675202 
L 81.642973 215.183718 
L 82.715405 215.634938 
L 84.145315 215.95124 
L 85.575225 216.040259 
L 87.362613 215.900543 
L 92.00982 215.393781 
L 100.231802 214.937495 
L 102.734144 214.79299 
L 104.521532 214.468867 
L 107.381351 213.652126 
L 109.883694 213.017926 
L 117.033243 211.486055 
L 122.037928 210.048025 
L 124.182793 209.693213 
L 128.472523 209.168881 
L 129.544955 208.744397 
L 130.974865 207.909799 
L 133.477207 206.075815 
L 138.481892 202.162375 
L 141.341712 199.620251 
L 143.486577 197.43621 
L 144.916486 195.729232 
L 145.988919 194.206007 
L 147.061351 192.316548 
L 148.133784 189.819605 
L 148.848739 187.655916 
L 149.563694 184.96345 
L 150.278649 181.63458 
L 151.351081 175.265197 
L 152.423514 167.125218 
L 153.495946 157.27624 
L 155.283333 138.075688 
L 157.428198 114.937586 
L 158.500631 105.616668 
L 159.215586 100.796006 
L 159.930541 97.268686 
L 160.645495 95.110048 
L 161.002973 94.545037 
L 161.36045 94.311501 
L 161.717928 94.39286 
L 162.075405 94.766285 
L 162.432883 95.403366 
L 163.147838 97.333856 
L 164.22027 101.318051 
L 167.08009 112.755282 
L 168.51 117.488854 
L 170.654865 123.726109 
L 176.731982 140.399497 
L 179.234324 146.560682 
L 185.311441 161.001521 
L 187.456306 166.981826 
L 191.031081 177.877519 
L 192.818468 183.028694 
L 194.248378 186.53172 
L 195.320811 188.660248 
L 196.393243 190.323582 
L 197.465676 191.53629 
L 198.538108 192.359012 
L 199.610541 192.893457 
L 201.04045 193.353687 
L 203.542793 193.915952 
L 205.33018 194.144068 
L 206.76009 194.135456 
L 208.19 193.917667 
L 209.61991 193.485361 
L 211.407297 192.675586 
L 213.552162 191.409184 
L 216.769459 189.189397 
L 219.271802 187.201152 
L 222.131622 184.598264 
L 225.348919 181.443011 
L 227.136306 179.386705 
L 228.923694 176.982883 
L 230.711081 174.216095 
L 232.498468 170.982656 
L 233.928378 167.911802 
L 235.358288 164.272182 
L 236.430721 161.052081 
L 237.503153 157.16504 
L 238.218108 153.92959 
L 238.933063 149.786644 
L 239.648018 144.1391 
L 240.362973 136.066596 
L 241.077928 124.290733 
L 241.792883 107.258231 
L 242.507838 83.409487 
L 243.222793 51.664397 
L 244.147941 -1 
M 251.59257 -1 
L 252.517207 51.639676 
L 253.232162 83.390806 
L 253.947117 107.243009 
L 254.662072 124.274084 
L 255.377027 136.04261 
L 256.091982 144.102624 
L 256.806937 149.735022 
L 257.521892 153.863736 
L 258.594324 158.482982 
L 259.666757 162.109718 
L 261.096667 166.123851 
L 262.526577 169.487425 
L 263.956486 172.327822 
L 265.743874 175.334465 
L 267.531261 177.92825 
L 269.318649 180.18127 
L 271.463514 182.479919 
L 275.038288 185.869779 
L 278.255586 188.687608 
L 280.757928 190.599582 
L 283.26027 192.251658 
L 285.405135 193.389085 
L 286.835045 193.936518 
L 288.264955 194.267578 
L 289.694865 194.367536 
L 291.124775 194.258262 
L 293.26964 193.829124 
L 295.771982 193.108781 
L 296.844414 192.633816 
L 297.916847 191.919986 
L 298.989279 190.856887 
L 300.061712 189.36406 
L 301.134144 187.404086 
L 302.206577 184.984517 
L 303.636486 181.151793 
L 306.138829 173.544777 
L 308.998649 164.949955 
L 311.143514 159.156497 
L 313.645856 153.108784 
L 318.293063 142.212095 
L 320.795405 135.620571 
L 326.157568 120.538889 
L 327.944955 115.06084 
L 329.374865 109.989733 
L 332.94964 96.245143 
L 333.664595 94.747199 
L 334.022072 94.375114 
L 334.37955 94.293703 
L 334.737027 94.525901 
L 335.094505 95.088441 
L 335.451982 95.991646 
L 336.166937 98.830644 
L 336.881892 103.009685 
L 337.596847 108.419438 
L 338.669279 118.441338 
L 340.456667 138.041653 
L 342.244054 157.282271 
L 343.673964 170.074459 
L 344.746396 177.636832 
L 345.818829 183.44748 
L 346.891261 187.717953 
L 347.963694 190.794519 
L 349.036126 193.048664 
L 350.108559 194.787302 
L 351.538468 196.650055 
L 353.325856 198.587607 
L 355.828198 200.944433 
L 359.045495 203.676177 
L 362.62027 206.381973 
L 365.48009 208.362056 
L 366.91 209.057813 
L 368.33991 209.440464 
L 370.127297 209.614752 
L 372.987117 209.876716 
L 375.131982 210.312191 
L 378.349279 211.231871 
L 381.924054 212.219768 
L 389.431081 214.022997 
L 391.933423 214.659222 
L 393.720811 214.904745 
L 396.580631 215.013338 
L 400.512883 215.190594 
L 408.734865 215.903234 
L 410.522252 215.976473 
L 411.952162 215.826018 
L 413.382072 215.443731 
L 414.454505 214.897096 
L 415.169459 214.250588 
L 415.884414 213.133683 
L 416.599369 211.153147 
L 417.314324 207.686669 
L 418.029279 201.849665 
L 418.744234 192.518329 
L 419.459189 178.423032 
L 420.174144 158.304973 
L 420.889099 131.115506 
L 421.604054 96.220494 
L 422.676486 29.428016 
L 423.093879 -1 
L 423.093879 -1 
" clip-path="url(#pd8d2c414f3)" style="fill: none; stroke: #0000ff; stroke-width: 1.5; stroke-linecap: square"/>
   </g>
   <g id="line2d_16">
    <path d="M 69.488739 138.677493 
L 76.638288 138.199621 
L 79.140631 138.287082 
L 83.787838 138.567636 
L 86.29018 138.431851 
L 92.724775 137.961183 
L 98.086937 137.822337 
L 101.661712 137.675703 
L 106.308919 137.43056 
L 110.241171 137.474341 
L 115.960811 137.635943 
L 124.897748 137.449801 
L 127.042613 137.66426 
L 131.68982 138.234725 
L 141.341712 138.980729 
L 144.559009 139.57431 
L 148.848739 140.605737 
L 150.993604 141.326679 
L 154.210901 142.712616 
L 158.143153 144.552501 
L 160.288018 145.802858 
L 163.147838 147.757548 
L 168.51 151.736872 
L 171.36982 154.110105 
L 174.587117 157.076494 
L 186.026396 168.176239 
L 189.601171 172.301815 
L 193.175946 176.754734 
L 196.393243 181.084119 
L 199.610541 185.774562 
L 203.185315 191.389503 
L 205.687658 195.720557 
L 208.547477 201.181862 
L 212.47973 209.253402 
L 220.701712 226.782909 
L 230.353604 247.004115 
L 233.213423 252.382251 
L 235.715766 256.574006 
L 237.860631 259.718633 
L 239.648018 261.97778 
L 241.435405 263.860857 
L 242.865315 265.063759 
L 244.295225 265.973506 
L 245.725135 266.577465 
L 247.155045 266.877138 
L 248.227477 266.90515 
L 249.29991 266.764958 
L 250.72982 266.313877 
L 252.15973 265.556404 
L 253.58964 264.497707 
L 255.01955 263.155993 
L 256.806937 261.116458 
L 258.594324 258.720165 
L 260.739189 255.430653 
L 262.884054 251.74174 
L 265.386396 247.004115 
L 268.603694 240.417855 
L 279.685495 216.845812 
L 285.762613 204.065921 
L 288.97991 197.71031 
L 291.482252 193.19309 
L 294.342072 188.522366 
L 297.916847 183.124778 
L 301.134144 178.63674 
L 304.708919 174.04247 
L 308.641171 169.378005 
L 311.858468 165.89952 
L 314.718288 163.163378 
L 320.08045 158.110207 
L 324.37018 154.110105 
L 327.23 151.736872 
L 331.162252 148.793695 
L 335.451982 145.802858 
L 337.596847 144.552501 
L 340.099189 143.349574 
L 345.461351 141.061602 
L 347.606216 140.409758 
L 351.538468 139.49878 
L 354.755766 138.928534 
L 357.973063 138.576735 
L 362.977748 138.300131 
L 366.195045 138.025836 
L 371.557207 137.427845 
L 375.489459 137.511192 
L 383.353964 137.586966 
L 388.358649 137.421005 
L 392.290901 137.545568 
L 398.010541 137.825326 
L 403.015225 137.961183 
L 408.01991 138.300153 
L 411.952162 138.567636 
L 414.454505 138.473664 
L 418.744234 138.197921 
L 421.604054 138.311338 
L 426.251261 138.677493 
L 426.251261 138.677493 
" clip-path="url(#pd8d2c414f3)" style="fill: none; stroke: #008000; stroke-width: 1.5; stroke-linecap: square"/>
   </g>
   <g id="line2d_17">
    <path d="M 81.214 190.826798 
L 105.022 194.055027 
L 128.83 196.722799 
L 152.638 165.30279 
L 176.446 151.659765 
L 200.254 158.035771 
L 224.062 146.838042 
L 247.87 130.539824 
L 271.678 146.838042 
L 295.486 158.035771 
L 319.294 151.659765 
L 343.102 165.30279 
L 366.91 196.722799 
L 390.718 194.055027 
L 414.526 190.826798 
" clip-path="url(#pd8d2c414f3)" style="fill: none; stroke: #ff7f50; stroke-width: 1.5; stroke-linecap: square"/>
    <defs>
     <path id="m918a248ca7" d="M 0 3 
C 0.795609 3 1.55874 2.683901 2.12132 2.12132 
C 2.683901 1.55874 3 0.795609 3 0 
C 3 -0.795609 2.683901 -1.55874 2.12132 -2.12132 
C 1.55874 -2.683901 0.795609 -3 0 -3 
C -0.795609 -3 -1.55874 -2.683901 -2.12132 -2.12132 
C -2.683901 -1.55874 -3 -0.795609 -3 0 
C -3 0.795609 -2.683901 1.55874 -2.12132 2.12132 
C -1.55874 2.683901 -0.795609 3 0 3 
z
" style="stroke: #ff7f50"/>
    </defs>
    <g clip-path="url(#pd8d2c414f3)">
     <use xlink:href="#m918a248ca7" x="81.214" y="190.826798" style="fill: #ff7f50; stroke: #ff7f50"/>
     <use xlink:href="#m918a248ca7" x="105.022" y="194.055027" style="fill: #ff7f50; stroke: #ff7f50"/>
     <use xlink:href="#m918a248ca7" x="128.83" y="196.722799" style="fill: #ff7f50; stroke: #ff7f50"/>
     <use xlink:href="#m918a248ca7" x="152.638" y="165.30279" style="fill: #ff7f50; stroke: #ff7f50"/>
     <use xlink:href="#m918a248ca7" x="176.446" y="151.659765" style="fill: #ff7f50; stroke: #ff7f50"/>
     <use xlink:href="#m918a248ca7" x="200.254" y="158.035771" style="fill: #ff7f50; stroke: #ff7f50"/>
     <use xlink:href="#m918a248ca7" x="224.062" y="146.838042" style="fill: #ff7f50; stroke: #ff7f50"/>
     <use xlink:href="#m918a248ca7" x="247.87" y="130.539824" style="fill: #ff7f50; stroke: #ff7f50"/>
     <use xlink:href="#m918a248ca7" x="271.678" y="146.838042" style="fill: #ff7f50; stroke: #ff7f50"/>
     <use xlink:href="#m918a248ca7" x="295.486" y="158.035771" style="fill: #ff7f50; stroke: #ff7f50"/>
     <use xlink:href="#m918a248ca7" x="319.294" y="151.659765" style="fill: #ff7f50; stroke: #ff7f50"/>
     <use xlink:href="#m918a248ca7" x="343.102" y="165.30279" style="fill: #ff7f50; stroke: #ff7f50"/>
     <use xlink:href="#m918a248ca7" x="366.91" y="196.722799" style="fill: #ff7f50; stroke: #ff7f50"/>
     <use xlink:href="#m918a248ca7" x="390.718" y="194.055027" style="fill: #ff7f50; stroke: #ff7f50"/>
     <use xlink:href="#m918a248ca7" x="414.526" y="190.826798" style="fill: #ff7f50; stroke: #ff7f50"/>
    </g>
   </g>
   <g id="patch_3">
    <path d="M 69.31 273.312 
L 69.31 7.2 
" style="fill: none; stroke: #000000; stroke-width: 0.8; stroke-linejoin: miter; stroke-linecap: square"/>
   </g>
   <g id="patch_4">
    <path d="M 426.43 273.312 
L 426.43 7.2 
" style="fill: none; stroke: #000000; stroke-width: 0.8; stroke-linejoin: miter; stroke-linecap: square"/>
   </g>
   <g id="patch_5">
    <path d="M 69.31 273.312 
L 426.43 273.312 
" style="fill: none; stroke: #000000; stroke-width: 0.8; stroke-linejoin: miter; stroke-linecap: square"/>
   </g>
   <g id="patch_6">
    <path d="M 69.31 7.2 
L 426.43 7.2 
" style="fill: none; stroke: #000000; stroke-width: 0.8; stroke-linejoin: miter; stroke-linecap: square"/>
   </g>
   <g id="legend_1">
    <g id="patch_7">
     <path d="M 203.6325 43.485 
L 415.23 43.485 
Q 418.43 43.485 418.43 40.285 
L 418.43 18.4 
Q 418.43 15.2 415.23 15.2 
L 203.6325 15.2 
Q 200.4325 15.2 200.4325 18.4 
L 200.4325 40.285 
Q 200.4325 43.485 203.6325 43.485 
z
" style="fill: #ffffff; opacity: 0.8; stroke: #cccccc; stroke-linejoin: miter"/>
    </g>
    <g id="line2d_18">
     <path d="M 206.8325 28.1575 
L 222.8325 28.1575 
L 238.8325 28.1575 
" style="fill: none; stroke: #ff7f50; stroke-width: 1.5; stroke-linecap: square"/>
     <g>
      <use xlink:href="#m918a248ca7" x="222.8325" y="28.1575" style="fill: #ff7f50; stroke: #ff7f50"/>
     </g>
    </g>
    <g id="text_17">
     <!-- Experimental, T = 5 -->
     <g transform="translate(251.6325 33.7575) scale(0.16 -0.16)">
      <defs>
       <path id="DejaVuSans-45" d="M 628 4666 
L 3578 4666 
L 3578 4134 
L 1259 4134 
L 1259 2753 
L 3481 2753 
L 3481 2222 
L 1259 2222 
L 1259 531 
L 3634 531 
L 3634 0 
L 628 0 
L 628 4666 
z
" transform="scale(0.015625)"/>
       <path id="DejaVuSans-78" d="M 3513 3500 
L 2247 1797 
L 3578 0 
L 2900 0 
L 1881 1375 
L 863 0 
L 184 0 
L 1544 1831 
L 300 3500 
L 978 3500 
L 1906 2253 
L 2834 3500 
L 3513 3500 
z
" transform="scale(0.015625)"/>
       <path id="DejaVuSans-70" d="M 1159 525 
L 1159 -1331 
L 581 -1331 
L 581 3500 
L 1159 3500 
L 1159 2969 
Q 1341 3281 1617 3432 
Q 1894 3584 2278 3584 
Q 2916 3584 3314 3078 
Q 3713 2572 3713 1747 
Q 3713 922 3314 415 
Q 2916 -91 2278 -91 
Q 1894 -91 1617 61 
Q 1341 213 1159 525 
z
M 3116 1747 
Q 3116 2381 2855 2742 
Q 2594 3103 2138 3103 
Q 1681 3103 1420 2742 
Q 1159 2381 1159 1747 
Q 1159 1113 1420 752 
Q 1681 391 2138 391 
Q 2594 391 2855 752 
Q 3116 1113 3116 1747 
z
" transform="scale(0.015625)"/>
       <path id="DejaVuSans-72" d="M 2631 2963 
Q 2534 3019 2420 3045 
Q 2306 3072 2169 3072 
Q 1681 3072 1420 2755 
Q 1159 2438 1159 1844 
L 1159 0 
L 581 0 
L 581 3500 
L 1159 3500 
L 1159 2956 
Q 1341 3275 1631 3429 
Q 1922 3584 2338 3584 
Q 2397 3584 2469 3576 
Q 2541 3569 2628 3553 
L 2631 2963 
z
" transform="scale(0.015625)"/>
       <path id="DejaVuSans-69" d="M 603 3500 
L 1178 3500 
L 1178 0 
L 603 0 
L 603 3500 
z
M 603 4863 
L 1178 4863 
L 1178 4134 
L 603 4134 
L 603 4863 
z
" transform="scale(0.015625)"/>
       <path id="DejaVuSans-6d" d="M 3328 2828 
Q 3544 3216 3844 3400 
Q 4144 3584 4550 3584 
Q 5097 3584 5394 3201 
Q 5691 2819 5691 2113 
L 5691 0 
L 5113 0 
L 5113 2094 
Q 5113 2597 4934 2840 
Q 4756 3084 4391 3084 
Q 3944 3084 3684 2787 
Q 3425 2491 3425 1978 
L 3425 0 
L 2847 0 
L 2847 2094 
Q 2847 2600 2669 2842 
Q 2491 3084 2119 3084 
Q 1678 3084 1418 2786 
Q 1159 2488 1159 1978 
L 1159 0 
L 581 0 
L 581 3500 
L 1159 3500 
L 1159 2956 
Q 1356 3278 1631 3431 
Q 1906 3584 2284 3584 
Q 2666 3584 2933 3390 
Q 3200 3197 3328 2828 
z
" transform="scale(0.015625)"/>
       <path id="DejaVuSans-74" d="M 1172 4494 
L 1172 3500 
L 2356 3500 
L 2356 3053 
L 1172 3053 
L 1172 1153 
Q 1172 725 1289 603 
Q 1406 481 1766 481 
L 2356 481 
L 2356 0 
L 1766 0 
Q 1100 0 847 248 
Q 594 497 594 1153 
L 594 3053 
L 172 3053 
L 172 3500 
L 594 3500 
L 594 4494 
L 1172 4494 
z
" transform="scale(0.015625)"/>
       <path id="DejaVuSans-61" d="M 2194 1759 
Q 1497 1759 1228 1600 
Q 959 1441 959 1056 
Q 959 750 1161 570 
Q 1363 391 1709 391 
Q 2188 391 2477 730 
Q 2766 1069 2766 1631 
L 2766 1759 
L 2194 1759 
z
M 3341 1997 
L 3341 0 
L 2766 0 
L 2766 531 
Q 2569 213 2275 61 
Q 1981 -91 1556 -91 
Q 1019 -91 701 211 
Q 384 513 384 1019 
Q 384 1609 779 1909 
Q 1175 2209 1959 2209 
L 2766 2209 
L 2766 2266 
Q 2766 2663 2505 2880 
Q 2244 3097 1772 3097 
Q 1472 3097 1187 3025 
Q 903 2953 641 2809 
L 641 3341 
Q 956 3463 1253 3523 
Q 1550 3584 1831 3584 
Q 2591 3584 2966 3190 
Q 3341 2797 3341 1997 
z
" transform="scale(0.015625)"/>
       <path id="DejaVuSans-2c" d="M 750 794 
L 1409 794 
L 1409 256 
L 897 -744 
L 494 -744 
L 750 256 
L 750 794 
z
" transform="scale(0.015625)"/>
       <path id="DejaVuSans-54" d="M -19 4666 
L 3928 4666 
L 3928 4134 
L 2272 4134 
L 2272 0 
L 1638 0 
L 1638 4134 
L -19 4134 
L -19 4666 
z
" transform="scale(0.015625)"/>
       <path id="DejaVuSans-3d" d="M 678 2906 
L 4684 2906 
L 4684 2381 
L 678 2381 
L 678 2906 
z
M 678 1631 
L 4684 1631 
L 4684 1100 
L 678 1100 
L 678 1631 
z
" transform="scale(0.015625)"/>
      </defs>
      <use xlink:href="#DejaVuSans-45"/>
      <use xlink:href="#DejaVuSans-78" x="63.183594"/>
      <use xlink:href="#DejaVuSans-70" x="122.363281"/>
      <use xlink:href="#DejaVuSans-65" x="185.839844"/>
      <use xlink:href="#DejaVuSans-72" x="247.363281"/>
      <use xlink:href="#DejaVuSans-69" x="288.476562"/>
      <use xlink:href="#DejaVuSans-6d" x="316.259766"/>
      <use xlink:href="#DejaVuSans-65" x="413.671875"/>
      <use xlink:href="#DejaVuSans-6e" x="475.195312"/>
      <use xlink:href="#DejaVuSans-74" x="538.574219"/>
      <use xlink:href="#DejaVuSans-61" x="577.783203"/>
      <use xlink:href="#DejaVuSans-6c" x="639.0625"/>
      <use xlink:href="#DejaVuSans-2c" x="666.845703"/>
      <use xlink:href="#DejaVuSans-20" x="698.632812"/>
      <use xlink:href="#DejaVuSans-54" x="730.419922"/>
      <use xlink:href="#DejaVuSans-20" x="791.503906"/>
      <use xlink:href="#DejaVuSans-3d" x="823.291016"/>
      <use xlink:href="#DejaVuSans-20" x="907.080078"/>
      <use xlink:href="#DejaVuSans-35" x="938.867188"/>
     </g>
    </g>
   </g>
  </g>
 </g>
 <defs>
  <clipPath id="pd8d2c414f3">
   <rect x="69.31" y="7.2" width="357.12" height="266.112"/>
  </clipPath>
 </defs>
</svg>
