<?xml version="1.0" encoding="utf-8" standalone="no"?>
<!DOCTYPE svg PUBLIC "-//W3C//DTD SVG 1.1//EN"
  "http://www.w3.org/Graphics/SVG/1.1/DTD/svg11.dtd">
<svg xmlns:xlink="http://www.w3.org/1999/xlink" width="414.145pt" height="322.482pt" viewBox="0 0 414.145 322.482" xmlns="http://www.w3.org/2000/svg" version="1.1">
 <metadata>
  <rdf:RDF xmlns:dc="http://purl.org/dc/elements/1.1/" xmlns:cc="http://creativecommons.org/ns#" xmlns:rdf="http://www.w3.org/1999/02/22-rdf-syntax-ns#">
   <cc:Work>
    <dc:type rdf:resource="http://purl.org/dc/dcmitype/StillImage"/>
    <dc:date>2025-05-26T19:29:49.721181</dc:date>
    <dc:format>image/svg+xml</dc:format>
    <dc:creator>
     <cc:Agent>
      <dc:title>Matplotlib v3.9.2, https://matplotlib.org/</dc:title>
     </cc:Agent>
    </dc:creator>
   </cc:Work>
  </rdf:RDF>
 </metadata>
 <defs>
  <style type="text/css">*{stroke-linejoin: round; stroke-linecap: butt}</style>
 </defs>
 <g id="figure_1">
  <g id="patch_1">
   <path d="M 0 322.482 
L 414.145 322.482 
L 414.145 0 
L 0 0 
z
" style="fill: #ffffff"/>
  </g>
  <g id="axes_1">
   <g id="patch_2">
    <path d="M 49.825 273.312 
L 406.945 273.312 
L 406.945 7.2 
L 49.825 7.2 
z
" style="fill: #ffffff"/>
   </g>
   <g id="matplotlib.axis_1">
    <g id="xtick_1">
     <g id="line2d_1">
      <defs>
       <path id="m5633584328" d="M 0 0 
L 0 3.5 
" style="stroke: #000000; stroke-width: 0.8"/>
      </defs>
      <g>
       <use xlink:href="#m5633584328" x="57.87276" y="273.312" style="stroke: #000000; stroke-width: 0.8"/>
      </g>
     </g>
     <g id="text_1">
      <!-- −3 -->
      <g transform="translate(46.07901 292.4695) scale(0.16 -0.16)">
       <defs>
        <path id="DejaVuSans-2212" d="M 678 2272 
L 4684 2272 
L 4684 1741 
L 678 1741 
L 678 2272 
z
" transform="scale(0.015625)"/>
        <path id="DejaVuSans-33" d="M 2597 2516 
Q 3050 2419 3304 2112 
Q 3559 1806 3559 1356 
Q 3559 666 3084 287 
Q 2609 -91 1734 -91 
Q 1441 -91 1130 -33 
Q 819 25 488 141 
L 488 750 
Q 750 597 1062 519 
Q 1375 441 1716 441 
Q 2309 441 2620 675 
Q 2931 909 2931 1356 
Q 2931 1769 2642 2001 
Q 2353 2234 1838 2234 
L 1294 2234 
L 1294 2753 
L 1863 2753 
Q 2328 2753 2575 2939 
Q 2822 3125 2822 3475 
Q 2822 3834 2567 4026 
Q 2313 4219 1838 4219 
Q 1578 4219 1281 4162 
Q 984 4106 628 3988 
L 628 4550 
Q 988 4650 1302 4700 
Q 1616 4750 1894 4750 
Q 2613 4750 3031 4423 
Q 3450 4097 3450 3541 
Q 3450 3153 3228 2886 
Q 3006 2619 2597 2516 
z
" transform="scale(0.015625)"/>
       </defs>
       <use xlink:href="#DejaVuSans-2212"/>
       <use xlink:href="#DejaVuSans-33" x="83.789062"/>
      </g>
     </g>
    </g>
    <g id="xtick_2">
     <g id="line2d_2">
      <g>
       <use xlink:href="#m5633584328" x="114.710173" y="273.312" style="stroke: #000000; stroke-width: 0.8"/>
      </g>
     </g>
     <g id="text_2">
      <!-- −2 -->
      <g transform="translate(102.916423 292.4695) scale(0.16 -0.16)">
       <defs>
        <path id="DejaVuSans-32" d="M 1228 531 
L 3431 531 
L 3431 0 
L 469 0 
L 469 531 
Q 828 903 1448 1529 
Q 2069 2156 2228 2338 
Q 2531 2678 2651 2914 
Q 2772 3150 2772 3378 
Q 2772 3750 2511 3984 
Q 2250 4219 1831 4219 
Q 1534 4219 1204 4116 
Q 875 4013 500 3803 
L 500 4441 
Q 881 4594 1212 4672 
Q 1544 4750 1819 4750 
Q 2544 4750 2975 4387 
Q 3406 4025 3406 3419 
Q 3406 3131 3298 2873 
Q 3191 2616 2906 2266 
Q 2828 2175 2409 1742 
Q 1991 1309 1228 531 
z
" transform="scale(0.015625)"/>
       </defs>
       <use xlink:href="#DejaVuSans-2212"/>
       <use xlink:href="#DejaVuSans-32" x="83.789062"/>
      </g>
     </g>
    </g>
    <g id="xtick_3">
     <g id="line2d_3">
      <g>
       <use xlink:href="#m5633584328" x="171.547587" y="273.312" style="stroke: #000000; stroke-width: 0.8"/>
      </g>
     </g>
     <g id="text_3">
      <!-- −1 -->
      <g transform="translate(159.753837 292.4695) scale(0.16 -0.16)">
       <defs>
        <path id="DejaVuSans-31" d="M 794 531 
L 1825 531 
L 1825 4091 
L 703 3866 
L 703 4441 
L 1819 4666 
L 2450 4666 
L 2450 531 
L 3481 531 
L 3481 0 
L 794 0 
L 794 531 
z
" transform="scale(0.015625)"/>
       </defs>
       <use xlink:href="#DejaVuSans-2212"/>
       <use xlink:href="#DejaVuSans-31" x="83.789062"/>
      </g>
     </g>
    </g>
    <g id="xtick_4">
     <g id="line2d_4">
      <g>
       <use xlink:href="#m5633584328" x="228.385" y="273.312" style="stroke: #000000; stroke-width: 0.8"/>
      </g>
     </g>
     <g id="text_4">
      <!-- 0 -->
      <g transform="translate(223.295 292.4695) scale(0.16 -0.16)">
       <defs>
        <path id="DejaVuSans-30" d="M 2034 4250 
Q 1547 4250 1301 3770 
Q 1056 3291 1056 2328 
Q 1056 1369 1301 889 
Q 1547 409 2034 409 
Q 2525 409 2770 889 
Q 3016 1369 3016 2328 
Q 3016 3291 2770 3770 
Q 2525 4250 2034 4250 
z
M 2034 4750 
Q 2819 4750 3233 4129 
Q 3647 3509 3647 2328 
Q 3647 1150 3233 529 
Q 2819 -91 2034 -91 
Q 1250 -91 836 529 
Q 422 1150 422 2328 
Q 422 3509 836 4129 
Q 1250 4750 2034 4750 
z
" transform="scale(0.015625)"/>
       </defs>
       <use xlink:href="#DejaVuSans-30"/>
      </g>
     </g>
    </g>
    <g id="xtick_5">
     <g id="line2d_5">
      <g>
       <use xlink:href="#m5633584328" x="285.222413" y="273.312" style="stroke: #000000; stroke-width: 0.8"/>
      </g>
     </g>
     <g id="text_5">
      <!-- 1 -->
      <g transform="translate(280.132413 292.4695) scale(0.16 -0.16)">
       <use xlink:href="#DejaVuSans-31"/>
      </g>
     </g>
    </g>
    <g id="xtick_6">
     <g id="line2d_6">
      <g>
       <use xlink:href="#m5633584328" x="342.059827" y="273.312" style="stroke: #000000; stroke-width: 0.8"/>
      </g>
     </g>
     <g id="text_6">
      <!-- 2 -->
      <g transform="translate(336.969827 292.4695) scale(0.16 -0.16)">
       <use xlink:href="#DejaVuSans-32"/>
      </g>
     </g>
    </g>
    <g id="xtick_7">
     <g id="line2d_7">
      <g>
       <use xlink:href="#m5633584328" x="398.89724" y="273.312" style="stroke: #000000; stroke-width: 0.8"/>
      </g>
     </g>
     <g id="text_7">
      <!-- 3 -->
      <g transform="translate(393.80724 292.4695) scale(0.16 -0.16)">
       <use xlink:href="#DejaVuSans-33"/>
      </g>
     </g>
    </g>
    <g id="text_8">
     <!-- $\theta$ -->
     <g transform="translate(223.425 311.9545) scale(0.16 -0.16)">
      <defs>
       <path id="DejaVuSans-Oblique-3b8" d="M 2913 2219 
L 925 2219 
Q 791 1284 928 888 
Q 1100 400 1566 400 
Q 2034 400 2391 891 
Q 2703 1322 2913 2219 
z
M 3009 2750 
Q 3094 3638 2984 3950 
Q 2813 4444 2353 4444 
Q 1875 4444 1525 3956 
Q 1250 3563 1034 2750 
L 3009 2750 
z
M 2444 4913 
Q 3194 4913 3494 4250 
Q 3794 3591 3566 2422 
Q 3341 1256 2781 594 
Q 2225 -72 1475 -72 
Q 722 -72 425 594 
Q 128 1256 353 2422 
Q 581 3591 1134 4250 
Q 1691 4913 2444 4913 
z
" transform="scale(0.015625)"/>
      </defs>
      <use xlink:href="#DejaVuSans-Oblique-3b8" transform="translate(0 0.234375)"/>
     </g>
    </g>
   </g>
   <g id="matplotlib.axis_2">
    <g id="ytick_1">
     <g id="line2d_8">
      <defs>
       <path id="madab856e64" d="M 0 0 
L -3.5 0 
" style="stroke: #000000; stroke-width: 0.8"/>
      </defs>
      <g>
       <use xlink:href="#madab856e64" x="49.825" y="265.485176" style="stroke: #000000; stroke-width: 0.8"/>
      </g>
     </g>
     <g id="text_9">
      <!-- 0.00 -->
      <g transform="translate(7.2 271.563926) scale(0.16 -0.16)">
       <defs>
        <path id="DejaVuSans-2e" d="M 684 794 
L 1344 794 
L 1344 0 
L 684 0 
L 684 794 
z
" transform="scale(0.015625)"/>
       </defs>
       <use xlink:href="#DejaVuSans-30"/>
       <use xlink:href="#DejaVuSans-2e" x="63.623047"/>
       <use xlink:href="#DejaVuSans-30" x="95.410156"/>
       <use xlink:href="#DejaVuSans-30" x="159.033203"/>
      </g>
     </g>
    </g>
    <g id="ytick_2">
     <g id="line2d_9">
      <g>
       <use xlink:href="#madab856e64" x="49.825" y="226.351059" style="stroke: #000000; stroke-width: 0.8"/>
      </g>
     </g>
     <g id="text_10">
      <!-- 0.05 -->
      <g transform="translate(7.2 232.429809) scale(0.16 -0.16)">
       <defs>
        <path id="DejaVuSans-35" d="M 691 4666 
L 3169 4666 
L 3169 4134 
L 1269 4134 
L 1269 2991 
Q 1406 3038 1543 3061 
Q 1681 3084 1819 3084 
Q 2600 3084 3056 2656 
Q 3513 2228 3513 1497 
Q 3513 744 3044 326 
Q 2575 -91 1722 -91 
Q 1428 -91 1123 -41 
Q 819 9 494 109 
L 494 744 
Q 775 591 1075 516 
Q 1375 441 1709 441 
Q 2250 441 2565 725 
Q 2881 1009 2881 1497 
Q 2881 1984 2565 2268 
Q 2250 2553 1709 2553 
Q 1456 2553 1204 2497 
Q 953 2441 691 2322 
L 691 4666 
z
" transform="scale(0.015625)"/>
       </defs>
       <use xlink:href="#DejaVuSans-30"/>
       <use xlink:href="#DejaVuSans-2e" x="63.623047"/>
       <use xlink:href="#DejaVuSans-30" x="95.410156"/>
       <use xlink:href="#DejaVuSans-35" x="159.033203"/>
      </g>
     </g>
    </g>
    <g id="ytick_3">
     <g id="line2d_10">
      <g>
       <use xlink:href="#madab856e64" x="49.825" y="187.216941" style="stroke: #000000; stroke-width: 0.8"/>
      </g>
     </g>
     <g id="text_11">
      <!-- 0.10 -->
      <g transform="translate(7.2 193.295691) scale(0.16 -0.16)">
       <use xlink:href="#DejaVuSans-30"/>
       <use xlink:href="#DejaVuSans-2e" x="63.623047"/>
       <use xlink:href="#DejaVuSans-31" x="95.410156"/>
       <use xlink:href="#DejaVuSans-30" x="159.033203"/>
      </g>
     </g>
    </g>
    <g id="ytick_4">
     <g id="line2d_11">
      <g>
       <use xlink:href="#madab856e64" x="49.825" y="148.082824" style="stroke: #000000; stroke-width: 0.8"/>
      </g>
     </g>
     <g id="text_12">
      <!-- 0.15 -->
      <g transform="translate(7.2 154.161574) scale(0.16 -0.16)">
       <use xlink:href="#DejaVuSans-30"/>
       <use xlink:href="#DejaVuSans-2e" x="63.623047"/>
       <use xlink:href="#DejaVuSans-31" x="95.410156"/>
       <use xlink:href="#DejaVuSans-35" x="159.033203"/>
      </g>
     </g>
    </g>
    <g id="ytick_5">
     <g id="line2d_12">
      <g>
       <use xlink:href="#madab856e64" x="49.825" y="108.948706" style="stroke: #000000; stroke-width: 0.8"/>
      </g>
     </g>
     <g id="text_13">
      <!-- 0.20 -->
      <g transform="translate(7.2 115.027456) scale(0.16 -0.16)">
       <use xlink:href="#DejaVuSans-30"/>
       <use xlink:href="#DejaVuSans-2e" x="63.623047"/>
       <use xlink:href="#DejaVuSans-32" x="95.410156"/>
       <use xlink:href="#DejaVuSans-30" x="159.033203"/>
      </g>
     </g>
    </g>
    <g id="ytick_6">
     <g id="line2d_13">
      <g>
       <use xlink:href="#madab856e64" x="49.825" y="69.814588" style="stroke: #000000; stroke-width: 0.8"/>
      </g>
     </g>
     <g id="text_14">
      <!-- 0.25 -->
      <g transform="translate(7.2 75.893338) scale(0.16 -0.16)">
       <use xlink:href="#DejaVuSans-30"/>
       <use xlink:href="#DejaVuSans-2e" x="63.623047"/>
       <use xlink:href="#DejaVuSans-32" x="95.410156"/>
       <use xlink:href="#DejaVuSans-35" x="159.033203"/>
      </g>
     </g>
    </g>
    <g id="ytick_7">
     <g id="line2d_14">
      <g>
       <use xlink:href="#madab856e64" x="49.825" y="30.680471" style="stroke: #000000; stroke-width: 0.8"/>
      </g>
     </g>
     <g id="text_15">
      <!-- 0.30 -->
      <g transform="translate(7.2 36.759221) scale(0.16 -0.16)">
       <use xlink:href="#DejaVuSans-30"/>
       <use xlink:href="#DejaVuSans-2e" x="63.623047"/>
       <use xlink:href="#DejaVuSans-33" x="95.410156"/>
       <use xlink:href="#DejaVuSans-30" x="159.033203"/>
      </g>
     </g>
    </g>
   </g>
   <g id="line2d_15">
    <path d="M 61.729 192.279023 
L 85.537 202.783929 
L 109.345 204.568462 
L 133.153 42.438612 
L 156.961 64.821032 
L 180.769 172.690237 
L 204.577 128.076477 
L 228.385 98.533483 
L 252.193 128.925803 
L 276.001 168.443608 
L 299.809 72.234637 
L 323.617 36.723658 
L 347.425 206.179252 
L 371.233 202.783929 
L 395.041 192.279023 
" clip-path="url(#pa4b5097d07)" style="fill: none; stroke: #1f77b4; stroke-width: 1.5; stroke-linecap: square"/>
   </g>
   <g id="LineCollection_1">
    <path d="M 61.729 148.766996 
L 61.729 136.592326 
" clip-path="url(#pa4b5097d07)" style="fill: none; stroke: #008000; stroke-width: 1.5"/>
    <path d="M 85.537 200.991972 
L 85.537 188.093453 
" clip-path="url(#pa4b5097d07)" style="fill: none; stroke: #008000; stroke-width: 1.5"/>
    <path d="M 109.345 188.872467 
L 109.345 176.540527 
" clip-path="url(#pa4b5097d07)" style="fill: none; stroke: #008000; stroke-width: 1.5"/>
    <path d="M 133.153 116.407818 
L 133.153 102.235252 
" clip-path="url(#pa4b5097d07)" style="fill: none; stroke: #008000; stroke-width: 1.5"/>
    <path d="M 156.961 122.410936 
L 156.961 107.137989 
" clip-path="url(#pa4b5097d07)" style="fill: none; stroke: #008000; stroke-width: 1.5"/>
    <path d="M 180.769 172.914328 
L 180.769 158.565098 
" clip-path="url(#pa4b5097d07)" style="fill: none; stroke: #008000; stroke-width: 1.5"/>
    <path d="M 204.577 142.002667 
L 204.577 129.520802 
" clip-path="url(#pa4b5097d07)" style="fill: none; stroke: #008000; stroke-width: 1.5"/>
    <path d="M 228.385 33.654641 
L 228.385 11.76243 
" clip-path="url(#pa4b5097d07)" style="fill: none; stroke: #008000; stroke-width: 1.5"/>
    <path d="M 252.193 142.002667 
L 252.193 129.520802 
" clip-path="url(#pa4b5097d07)" style="fill: none; stroke: #008000; stroke-width: 1.5"/>
    <path d="M 276.001 172.914328 
L 276.001 158.565098 
" clip-path="url(#pa4b5097d07)" style="fill: none; stroke: #008000; stroke-width: 1.5"/>
    <path d="M 299.809 122.410936 
L 299.809 107.137989 
" clip-path="url(#pa4b5097d07)" style="fill: none; stroke: #008000; stroke-width: 1.5"/>
    <path d="M 323.617 116.407818 
L 323.617 102.235252 
" clip-path="url(#pa4b5097d07)" style="fill: none; stroke: #008000; stroke-width: 1.5"/>
    <path d="M 347.425 188.872467 
L 347.425 176.540527 
" clip-path="url(#pa4b5097d07)" style="fill: none; stroke: #008000; stroke-width: 1.5"/>
    <path d="M 371.233 200.991972 
L 371.233 188.093453 
" clip-path="url(#pa4b5097d07)" style="fill: none; stroke: #008000; stroke-width: 1.5"/>
    <path d="M 395.041 148.766996 
L 395.041 136.592326 
" clip-path="url(#pa4b5097d07)" style="fill: none; stroke: #008000; stroke-width: 1.5"/>
   </g>
   <g id="line2d_16">
    <defs>
     <path id="m566bba84c7" d="M 4 0 
L -4 -0 
" style="stroke: #008000"/>
    </defs>
    <g clip-path="url(#pa4b5097d07)">
     <use xlink:href="#m566bba84c7" x="61.729" y="148.766996" style="fill: #008000; stroke: #008000"/>
     <use xlink:href="#m566bba84c7" x="85.537" y="200.991972" style="fill: #008000; stroke: #008000"/>
     <use xlink:href="#m566bba84c7" x="109.345" y="188.872467" style="fill: #008000; stroke: #008000"/>
     <use xlink:href="#m566bba84c7" x="133.153" y="116.407818" style="fill: #008000; stroke: #008000"/>
     <use xlink:href="#m566bba84c7" x="156.961" y="122.410936" style="fill: #008000; stroke: #008000"/>
     <use xlink:href="#m566bba84c7" x="180.769" y="172.914328" style="fill: #008000; stroke: #008000"/>
     <use xlink:href="#m566bba84c7" x="204.577" y="142.002667" style="fill: #008000; stroke: #008000"/>
     <use xlink:href="#m566bba84c7" x="228.385" y="33.654641" style="fill: #008000; stroke: #008000"/>
     <use xlink:href="#m566bba84c7" x="252.193" y="142.002667" style="fill: #008000; stroke: #008000"/>
     <use xlink:href="#m566bba84c7" x="276.001" y="172.914328" style="fill: #008000; stroke: #008000"/>
     <use xlink:href="#m566bba84c7" x="299.809" y="122.410936" style="fill: #008000; stroke: #008000"/>
     <use xlink:href="#m566bba84c7" x="323.617" y="116.407818" style="fill: #008000; stroke: #008000"/>
     <use xlink:href="#m566bba84c7" x="347.425" y="188.872467" style="fill: #008000; stroke: #008000"/>
     <use xlink:href="#m566bba84c7" x="371.233" y="200.991972" style="fill: #008000; stroke: #008000"/>
     <use xlink:href="#m566bba84c7" x="395.041" y="148.766996" style="fill: #008000; stroke: #008000"/>
    </g>
   </g>
   <g id="line2d_17">
    <g clip-path="url(#pa4b5097d07)">
     <use xlink:href="#m566bba84c7" x="61.729" y="136.592326" style="fill: #008000; stroke: #008000"/>
     <use xlink:href="#m566bba84c7" x="85.537" y="188.093453" style="fill: #008000; stroke: #008000"/>
     <use xlink:href="#m566bba84c7" x="109.345" y="176.540527" style="fill: #008000; stroke: #008000"/>
     <use xlink:href="#m566bba84c7" x="133.153" y="102.235252" style="fill: #008000; stroke: #008000"/>
     <use xlink:href="#m566bba84c7" x="156.961" y="107.137989" style="fill: #008000; stroke: #008000"/>
     <use xlink:href="#m566bba84c7" x="180.769" y="158.565098" style="fill: #008000; stroke: #008000"/>
     <use xlink:href="#m566bba84c7" x="204.577" y="129.520802" style="fill: #008000; stroke: #008000"/>
     <use xlink:href="#m566bba84c7" x="228.385" y="11.76243" style="fill: #008000; stroke: #008000"/>
     <use xlink:href="#m566bba84c7" x="252.193" y="129.520802" style="fill: #008000; stroke: #008000"/>
     <use xlink:href="#m566bba84c7" x="276.001" y="158.565098" style="fill: #008000; stroke: #008000"/>
     <use xlink:href="#m566bba84c7" x="299.809" y="107.137989" style="fill: #008000; stroke: #008000"/>
     <use xlink:href="#m566bba84c7" x="323.617" y="102.235252" style="fill: #008000; stroke: #008000"/>
     <use xlink:href="#m566bba84c7" x="347.425" y="176.540527" style="fill: #008000; stroke: #008000"/>
     <use xlink:href="#m566bba84c7" x="371.233" y="188.093453" style="fill: #008000; stroke: #008000"/>
     <use xlink:href="#m566bba84c7" x="395.041" y="136.592326" style="fill: #008000; stroke: #008000"/>
    </g>
   </g>
   <g id="line2d_18">
    <defs>
     <path id="m263e117565" d="M 0 3.5 
C 0.928211 3.5 1.81853 3.131218 2.474874 2.474874 
C 3.131218 1.81853 3.5 0.928211 3.5 0 
C 3.5 -0.928211 3.131218 -1.81853 2.474874 -2.474874 
C 1.81853 -3.131218 0.928211 -3.5 0 -3.5 
C -0.928211 -3.5 -1.81853 -3.131218 -2.474874 -2.474874 
C -3.131218 -1.81853 -3.5 -0.928211 -3.5 0 
C -3.5 0.928211 -3.131218 1.81853 -2.474874 2.474874 
C -1.81853 3.131218 -0.928211 3.5 0 3.5 
z
" style="stroke: #008000"/>
    </defs>
    <g clip-path="url(#pa4b5097d07)">
     <use xlink:href="#m263e117565" x="61.729" y="142.679661" style="fill: #008000; stroke: #008000"/>
     <use xlink:href="#m263e117565" x="85.537" y="194.542713" style="fill: #008000; stroke: #008000"/>
     <use xlink:href="#m263e117565" x="109.345" y="182.706497" style="fill: #008000; stroke: #008000"/>
     <use xlink:href="#m263e117565" x="133.153" y="109.321535" style="fill: #008000; stroke: #008000"/>
     <use xlink:href="#m263e117565" x="156.961" y="114.774463" style="fill: #008000; stroke: #008000"/>
     <use xlink:href="#m263e117565" x="180.769" y="165.739713" style="fill: #008000; stroke: #008000"/>
     <use xlink:href="#m263e117565" x="204.577" y="135.761734" style="fill: #008000; stroke: #008000"/>
     <use xlink:href="#m263e117565" x="228.385" y="22.708536" style="fill: #008000; stroke: #008000"/>
     <use xlink:href="#m263e117565" x="252.193" y="135.761734" style="fill: #008000; stroke: #008000"/>
     <use xlink:href="#m263e117565" x="276.001" y="165.739713" style="fill: #008000; stroke: #008000"/>
     <use xlink:href="#m263e117565" x="299.809" y="114.774463" style="fill: #008000; stroke: #008000"/>
     <use xlink:href="#m263e117565" x="323.617" y="109.321535" style="fill: #008000; stroke: #008000"/>
     <use xlink:href="#m263e117565" x="347.425" y="182.706497" style="fill: #008000; stroke: #008000"/>
     <use xlink:href="#m263e117565" x="371.233" y="194.542713" style="fill: #008000; stroke: #008000"/>
     <use xlink:href="#m263e117565" x="395.041" y="142.679661" style="fill: #008000; stroke: #008000"/>
    </g>
   </g>
   <g id="patch_3">
    <path d="M 49.825 273.312 
L 49.825 7.2 
" style="fill: none; stroke: #000000; stroke-width: 0.8; stroke-linejoin: miter; stroke-linecap: square"/>
   </g>
   <g id="patch_4">
    <path d="M 406.945 273.312 
L 406.945 7.2 
" style="fill: none; stroke: #000000; stroke-width: 0.8; stroke-linejoin: miter; stroke-linecap: square"/>
   </g>
   <g id="patch_5">
    <path d="M 49.825 273.312 
L 406.945 273.312 
" style="fill: none; stroke: #000000; stroke-width: 0.8; stroke-linejoin: miter; stroke-linecap: square"/>
   </g>
   <g id="patch_6">
    <path d="M 49.825 7.2 
L 406.945 7.2 
" style="fill: none; stroke: #000000; stroke-width: 0.8; stroke-linejoin: miter; stroke-linecap: square"/>
   </g>
  </g>
 </g>
 <defs>
  <clipPath id="pa4b5097d07">
   <rect x="49.825" y="7.2" width="357.12" height="266.112"/>
  </clipPath>
 </defs>
</svg>
